{"title":"Sherlock Holmes A Games of Shadows 2011 READNFO TS XViD NoZGT","uid":6924406,"size":1076031034,"categoryP":"video","categoryS":"movies","magnet":"?xt=urn:btih:315b14d54e769781ed74f4c536bf21754e92a845&amp;dn=Sherlock+Holmes+A+Games+of+Shadows+2011+READNFO+TS+XViD+NoZGT&amp;tr=udp%3A%2F%2Ftracker.openbittorrent.com%3A80&amp;tr=udp%3A%2F%2Fopen.demonii.com%3A1337&amp;tr=udp%3A%2F%2Ftracker.coppersurfer.tk%3A6969&amp;tr=udp%3A%2F%2Fexodus.desync.com%3A6969","seeders":1,"leechers":0,"uploader":"TvTeam","files":8,"time":1325417558,"description":". \n &lt;a href=&quot;\nhttp://www.torrenting.com&quot; rel=&quot;nofollow&quot; target=&quot;_NEW&quot;&gt;\nhttp://www.torrenting.com&lt;/a&gt;          :     Once &amp; For all ;)\n\n\n               www . Torrenting . Com \n\n(((((((((((((= Enjoy No RAR releases =))))))))))))))))))))\n\n\n...................................NFO:....................................\n\n.\n\n \nTITLE: \n\nSherlock Holmes A Games of Shadows 2011 READNFO TS XViD NoZGT\n\nIMDB: \n &lt;a href=&quot;\nhttp://www.imdb.com/title/tt1515091/&quot; rel=&quot;nofollow&quot; target=&quot;_NEW&quot;&gt;\nhttp://www.imdb.com/title/tt1515091/&lt;/a&gt;\n\n\nSOURCES:\n\nVIDEO - 26k thx\nAUDIO - Used DTRG line Sources: UnKnoWn/26k thx\nSUBS  - ENG HC \n\nSTATS:\n\nVideo\nID                               : 0\nFormat                           : MPEG-4 Visual\nFormat profile                   : Advanced Simple@L5\nFormat settings, BVOP            : 2\nFormat settings, QPel            : No\nFormat settings, GMC             : No warppoints\nFormat settings, Matrix          : Default (MPEG)\nMuxing mode                      : Packed bitstream\nCodec ID                         : XVID\nCodec ID/Hint                    : XviD\nDuration                         : 2h 0mn 31sec\nBit rate                         : 1 042 Kbps\nWidth                            : 720 pixels\nHeight                           : 304 pixels\nDisplay aspect ratio             : 2.35:1\nFrame rate                       : 25.000 fps\nColor space                      : YUV\nChroma subsampling               : 4:2:0\nBit depth                        : 8 bits\nScan type                        : Progressive\nCompression mode                 : Lossy\nBits/(Pixel*Frame)               : 0.396\nStream size                      : 1.82 GiB (94%)\nWriting library                  : XviD \n\nAudio\nID                               : 1\nFormat                           : MPEG Audio\nFormat version                   : Version 1\nFormat profile                   : Layer 3\nMode                             : Joint stereo\nMode extension                   : MS Stereo\nCodec ID                         : 55\nCodec ID/Hint                    : MP3\nDuration                         : 2h 0mn\nBit rate mode                    : Constant\nBit rate                         : 128 Kbps\nChannel(s)                       : 2 channels\nSampling rate                    : 44.1 KHz\nCompression mode                 : Lossy\nStream size                      : 110 MiB (6%)\nAlignment                        : Split accross interleaves\nInterleave, duration             : 14040 ms(14sec added in begining)\nInterleave, preload duration     : 500 ms\n\n\nNOTES:\n\nFirst off I like to thank all the sources 26k,UnKnowN,Inspiral and DTRG for fixing the line :)\n\nWorkdone:\nI split the movie up into multiple parts and adjusted levels when it was needed. I added some more Saturation and used a blur so i can resharpen it up without it making it look like crap. I also took 14sec of the beginning of the first source to make it a more of a full movie. Hope you all like if not dont download it","torrent":{"xt":"urn:btih:315b14d54e769781ed74f4c536bf21754e92a845","amp;dn":"Sherlock+Holmes+A+Games+of+Shadows+2011+READNFO+TS+XViD+NoZGT","amp;tr":["udp%3A%2F%2Ftracker.openbittorrent.com%3A80","udp%3A%2F%2Fopen.demonii.com%3A1337","udp%3A%2F%2Ftracker.coppersurfer.tk%3A6969","udp%3A%2F%2Fexodus.desync.com%3A6969"],"infoHash":"315b14d54e769781ed74f4c536bf21754e92a845","infoHashBuffer":{"type":"Buffer","data":[49,91,20,213,78,118,151,129,237,116,244,197,54,191,33,117,78,146,168,69]},"announce":[],"urlList":[]}}